#!OML:ASF F:\VICON\USERDATA\INSTALL\rory3\rory3.ASF
:FULLY-SPECIFIED
:DEGREES
3220
root -12.008 18.9078 -3.08882 -370.995 -59.1152 370.409
lowerback 5.61722 1.17329 -1.11466
upperback -0.993959 1.46924 -0.380042
thorax -4.19587 0.751026 0.0981769
lowerneck -8.65027 2.5684 -5.01212
upperneck 10.7231 3.58571 4.4656
head 4.44989 1.82447 2.41494
rclavicle -1.67973e-014 -1.35174e-014
rhumerus 88.8844 -23.895 -42.0638
rradius 40.248
rwrist -33.4744
rhand -29.9188 -6.68124
rfingers 7.12502
rthumb -3.23907 -36.6364
lclavicle -1.67973e-014 -1.35174e-014
lhumerus 86.6838 25.1381 40.647
lradius 34.9217
lwrist 53.3995
lhand -9.65696 25.1323
lfingers 7.12502
lthumb 16.314 54.4661
rfemur -10.0515 9.60153 17.4684
rtibia 39.8983
rfoot -18.152 -19.2842
rtoes -10.769
lfemur -3.9157 -0.0057819 -21.9166
ltibia 34.3177
lfoot -20.0887 9.55541
ltoes -1.55476
3221
root -11.9959 18.9252 -3.06958 -371.111 -59.0603 370.494
lowerback 5.56821 1.15333 -1.19194
upperback -1.00911 1.43665 -0.405039
thorax -4.18488 0.736416 0.119539
lowerneck -8.53491 2.51565 -5.11462
upperneck 10.6437 3.50832 4.60063
head 4.40547 1.78998 2.4653
rclavicle 5.60076e-014 -4.77083e-015
rhumerus 88.8329 -23.8944 -42.3859
rradius 39.9005
rwrist -33.2132
rhand -27.7241 -4.07862
rfingers 7.12502
rthumb -1.11946 -34.0554
lclavicle 5.60076e-014 -4.77083e-015
lhumerus 86.5608 25.148 40.6919
lradius 34.9313
lwrist 53.1797
lhand -9.96664 24.8749
lfingers 7.12502
lthumb 16.0158 54.2329
rfemur -9.90923 9.63985 17.3403
rtibia 39.7097
rfoot -17.9884 -19.3457
rtoes -10.8994
lfemur -3.94358 -0.00156649 -21.64
ltibia 34.6704
lfoot -19.6005 9.49518
ltoes -2.88071
3222
root -11.9817 18.9368 -3.04719 -371.148 -59.1113 370.452
lowerback 5.52885 1.17479 -1.16769
upperback -1.0242 1.46782 -0.398414
thorax -4.17823 0.751454 0.110586
lowerneck -8.31968 2.47706 -5.28454
upperneck 10.4875 3.44723 4.80793
head 4.31755 1.76465 2.54669
rclavicle -2.93456e-014 1.51076e-014
rhumerus 88.718 -23.8458 -42.6493
rradius 39.5587
rwrist -32.8152
rhand -21.6148 2.70095
rfingers 7.12502
rthumb 4.78075 -27.2251
lclavicle -2.93456e-014 1.51076e-014
lhumerus 86.5727 25.1287 40.8701
lradius 34.9327
lwrist 53.0612
lhand -10.2506 24.7802
lfingers 7.12502
lthumb 15.7424 54.1599
rfemur -9.74694 9.72626 17.282
rtibia 39.5161
rfoot -17.7929 -19.3091
rtoes -10.8951
lfemur -3.9181 -0.0220862 -21.2544
ltibia 35.0369
lfoot -19.2135 9.17369
ltoes -2.68837
3223
root -11.9659 18.9455 -3.02479 -371.158 -59.1767 370.391
lowerback 5.50094 1.22165 -1.12369
upperback -1.01802 1.53279 -0.424508
thorax -4.15489 0.782227 0.05381
lowerneck -8.24882 2.40541 -5.32031
upperneck 10.3431 3.34033 4.93801
head 4.26403 1.7187 2.58305
rclavicle 1.10574e-013 8.74653e-015
rhumerus 88.5008 -23.9429 -42.7867
rradius 39.2422
rwrist -32.3147
rhand -28.4513 -3.90002
rfingers 7.12502
rthumb -1.82182 -33.872
lclavicle 1.10574e-013 8.74653e-015
lhumerus 86.5053 25.1777 40.8276
lradius 35.1386
lwrist 53.1828
lhand -10.4842 24.9986
lfingers 7.12502
lthumb 15.5173 54.396
rfemur -9.62891 9.81619 17.2515
rtibia 39.3343
rfoot -17.4528 -19.4447
rtoes -11.4159
lfemur -3.89949 -0.0998443 -20.8274
ltibia 35.3884
lfoot -18.8411 8.75035
ltoes -1.5549
3224
root -11.9483 18.9543 -3.0027 -371.16 -59.1986 370.365
lowerback 5.42144 1.25471 -1.06097
upperback -0.965389 1.57923 -0.511009
thorax -4.0517 0.802301 -0.0720295
lowerneck -8.38382 2.32255 -5.22351
upperneck 10.2655 3.22263 4.9591
head 4.2704 1.66786 2.56865
rclavicle 4.89507e-014 1.59028e-014
rhumerus 88.3426 -24.2156 -43.0663
rradius 39.0709
rwrist -32.0258
rhand -30.5124 -6.51834
rfingers 7.12502
rthumb -3.81227 -36.464
lclavicle 4.89507e-014 1.59028e-014
lhumerus 86.5904 25.2657 40.8774
lradius 35.3075
lwrist 53.1347
lhand -10.5448 24.9638
lfingers 7.12502
lthumb 15.459 54.3657
rfemur -9.58913 9.7118 17.1752
rtibia 39.1619
rfoot -16.9891 -19.5775
rtoes -12.4614
lfemur -3.92834 -0.253945 -20.4124
ltibia 35.7301
lfoot -18.3797 8.51128
ltoes -0.98112
3225
root -11.9319 18.9642 -2.98125 -371.41 -59.2636 370.546
lowerback 5.42559 1.28487 -1.12126
upperback -0.926077 1.61028 -0.633584
thorax -4.01172 0.817266 -0.16692
lowerneck -8.39219 2.26648 -5.11136
upperneck 10.1187 3.13059 5.01327
head 4.2327 1.6311 2.55985
rclavicle 1.16289e-014 1.23246e-014
rhumerus 88.3334 -24.3941 -43.595
rradius 38.854
rwrist -31.9134
rhand -28.4023 -4.44814
rfingers 7.12502
rthumb -1.77442 -34.4205
lclavicle 1.16289e-014 1.23246e-014
lhumerus 86.6113 25.3754 40.8124
lradius 35.4451
lwrist 53.0629
lhand -10.403 25.0584
lfingers 7.12502
lthumb 15.5956 54.4497
rfemur -9.44046 9.80676 17.0267
rtibia 38.9949
rfoot -16.6845 -19.7306
rtoes -13.017
lfemur -3.83275 -0.37838 -20.0908
ltibia 36.0503
lfoot -17.7992 8.37779
ltoes -1.09743
3226
root -11.9142 18.9705 -2.95729 -371.826 -59.3304 370.852
lowerback 5.4996 1.26903 -1.28952
upperback -0.938799 1.57415 -0.673893
thorax -4.07002 0.802738 -0.113089
lowerneck -8.24733 2.28464 -5.24728
upperneck 9.99843 3.15686 5.12072
head 4.16623 1.64425 2.61193
rclavicle 1.80397e-014 9.93923e-015
rhumerus 88.435 -24.2718 -44.148
rradius 38.5334
rwrist -31.5495
rhand -21.804 2.5255
rfingers 7.12502
rthumb 4.59799 -27.4046
lclavicle 1.80397e-014 9.93923e-015
lhumerus 86.3268 25.5756 40.6001
lradius 35.5492
lwrist 53.1263
lhand -10.3692 24.5974
lfingers 7.12502
lthumb 15.6281 53.9862
rfemur -9.19141 10.0764 16.8308
rtibia 38.8266
rfoot -16.5521 -19.9058
rtoes -13.2803
lfemur -3.65442 -0.601314 -19.851
ltibia 36.3541
lfoot -17.1569 8.34402
ltoes -1.55361
3227
root -11.8947 18.9825 -2.93144 -372.203 -59.3709 371.126
lowerback 5.60808 1.24452 -1.43208
upperback -0.973074 1.52851 -0.678817
thorax -4.17019 0.783681 -0.0373636
lowerneck -8.23215 2.34362 -5.50154
upperneck 10.0776 3.24766 5.28583
head 4.17541 1.68813 2.71002
rclavicle 6.29402e-014 -2.78299e-015
rhumerus 88.3756 -24.1555 -44.3847
rradius 38.2532
rwrist -30.9678
rhand -27.8528 -3.9918
rfingers 7.12502
rthumb -1.24374 -33.9679
lclavicle 6.29402e-014 -2.78299e-015
lhumerus 85.9934 25.7797 40.3996
lradius 35.5905
lwrist 53.2103
lhand -10.4283 23.8466
lfingers 7.12502
lthumb 15.5712 53.2398
rfemur -8.95353 10.2186 16.6047
rtibia 38.6769
rfoot -16.6222 -19.8867
rtoes -12.9778
lfemur -3.46311 -0.892364 -19.6217
ltibia 36.5856
lfoot -16.3557 8.52524
ltoes -2.67664
3228
root -11.8755 18.9928 -2.90656 -372.27 -59.543 371.085
lowerback 5.66403 1.27407 -1.41078
upperback -0.97308 1.56859 -0.672098
thorax -4.20185 0.803226 -0.0474297
lowerneck -8.37652 2.37006 -5.56715
upperneck 10.1915 3.28978 5.3436
head 4.22958 1.71064 2.74538
rclavicle -6.95746e-015 3.18055e-015
rhumerus 88.2375 -24.2189 -44.4622
rradius 38.0289
rwrist -30.463
rhand -29.9957 -6.02344
rfingers 7.12502
rthumb -3.31335 -35.9774
lclavicle -6.95746e-015 3.18055e-015
lhumerus 85.8992 25.89 40.4607
lradius 35.6053
lwrist 52.938
lhand -10.5948 23.3965
lfingers 7.12502
lthumb 15.4108 52.8021
rfemur -8.77756 10.4167 16.5743
rtibia 38.5297
rfoot -16.8783 -19.7746
rtoes -11.8891
lfemur -3.26522 -1.08368 -19.1654
ltibia 36.7771
lfoot -15.5744 8.67904
ltoes -3.20036
3229
root -11.8568 18.9978 -2.88143 -372.599 -59.7063 371.31
lowerback 5.67081 1.33275 -1.55746
upperback -0.925107 1.63399 -0.729719
thorax -4.15921 0.837945 -0.0302104
lowerneck -8.36198 2.33343 -5.4446
upperneck 10.0732 3.24772 5.16083
head 4.19915 1.68483 2.66453
rclavicle -5.13858e-014 -1.19271e-015
rhumerus 88.2926 -24.299 -44.9251
rradius 37.7375
rwrist -30.0911
rhand -30.384 -5.89701
rfingers 7.12502
rthumb -3.68824 -35.8448
lclavicle -5.13858e-014 -1.19271e-015
lhumerus 85.8959 26.0056 40.4876
lradius 35.6273
lwrist 52.5412
lhand -10.5793 22.9768
lfingers 7.12502
lthumb 15.4257 52.3812
rfemur -8.57828 10.6996 16.4322
rtibia 38.3886
rfoot -17.1965 -19.7662
rtoes -10.8248
lfemur -2.9944 -1.42494 -18.826
ltibia 36.9504
lfoot -15.0868 8.65812
ltoes -1.66785
3230
root -11.838 19.004 -2.85483 -372.757 -59.8523 371.398
lowerback 5.65019 1.34742 -1.64928
upperback -0.931613 1.6464 -0.74918
thorax -4.15661 0.845991 0.000369661
lowerneck -8.28268 2.31866 -5.42549
upperneck 9.92784 3.23719 5.05409
head 4.14468 1.67454 2.62408
rclavicle 4.13472e-014 1.19271e-014
rhumerus 88.4343 -24.2842 -45.5561
rradius 37.4384
rwrist -29.9313
rhand -30.4647 -6.1519
rfingers 7.12502
rthumb -3.76618 -36.0984
lclavicle 4.13472e-014 1.19271e-014
lhumerus 85.8421 26.1763 40.4897
lradius 35.5829
lwrist 51.9839
lhand -10.1021 23.1028
lfingers 7.12502
lthumb 15.8853 52.4712
rfemur -8.41697 10.8054 16.3309
rtibia 38.228
rfoot -17.362 -19.6891
rtoes -10.2733
lfemur -2.79772 -1.88695 -18.43
ltibia 37.1477
lfoot -14.6336 8.75614
ltoes -0.442283
3231
root -11.8165 19.0074 -2.82743 -373.09 -60.0514 371.649
lowerback 5.72793 1.38408 -1.81275
upperback -0.928494 1.68046 -0.770877
thorax -4.20203 0.86651 0.0643275
lowerneck -8.35924 2.33228 -5.44456
upperneck 9.82673 3.27157 4.99431
head 4.12566 1.68922 2.61029
rclavicle 1.74185e-014 1.03368e-014
rhumerus 88.3756 -24.2964 -45.8059
rradius 37.3775
rwrist -30.4318
rhand -31.493 -6.86361
rfingers 7.12502
rthumb -4.75917 -36.7902
lclavicle 1.74185e-014 1.03368e-014
lhumerus 85.6869 26.4345 40.2708
lradius 35.3801
lwrist 51.2791
lhand -9.56563 22.9061
lfingers 7.12502
lthumb 16.4019 52.2326
rfemur -8.24162 10.9617 16.1634
rtibia 38.0634
rfoot -17.4741 -19.7237
rtoes -10.0641
lfemur -2.57334 -2.12321 -18.1418
ltibia 37.3598
lfoot -13.868 9.19244
ltoes -2.27481
3232
root -11.7938 19.0079 -2.79975 -373.244 -60.3039 371.739
lowerback 5.75902 1.4906 -1.82208
upperback -0.893859 1.81671 -0.874087
thorax -4.18278 0.932528 -0.0500483
lowerneck -8.61769 2.30166 -5.14592
upperneck 9.81991 3.22469 4.81455
head 4.17755 1.66986 2.50849
rclavicle -1.30204e-014 1.98785e-015
rhumerus 88.0381 -24.6211 -45.8368
rradius 37.4001
rwrist -30.9096
rhand -32.5462 -7.32092
rfingers 7.12502
rthumb -5.77613 -37.2222
lclavicle -1.30204e-014 1.98785e-015
lhumerus 85.708 26.5779 39.9767
lradius 35.2098
lwrist 50.5461
lhand -9.43493 22.4902
lfingers 7.12502
lthumb 16.5277 51.8063
rfemur -8.09965 11.2008 16.1257
rtibia 37.8324
rfoot -17.4855 -19.9689
rtoes -10.032
lfemur -2.43316 -2.19468 -17.7138
ltibia 37.6465
lfoot -12.9745 9.49829
ltoes -4.63626
3233
root -11.7706 19.0064 -2.76908 -373.362 -60.4855 371.803
lowerback 5.73178 1.45761 -1.90436
upperback -0.952478 1.76938 -0.812181
thorax -4.23217 0.91243 0.0640136
lowerneck -8.29408 2.3609 -5.25011
upperneck 9.59956 3.33245 4.58312
head 4.05387 1.70455 2.45056
rclavicle 1.14748e-013 3.97569e-016
rhumerus 88.2236 -24.5282 -46.4811
rradius 36.9825
rwrist -29.713
rhand -31.0121 -6.43588
rfingers 7.12502
rthumb -4.29481 -36.3723
lclavicle 1.14748e-013 3.97569e-016
lhumerus 85.2072 26.8634 39.5845
lradius 35.2627
lwrist 50.3943
lhand -9.96101 22.9242
lfingers 7.12502
lthumb 16.0212 52.2818
rfemur -7.94612 11.2848 16.0548
rtibia 37.554
rfoot -17.4355 -20.1119
rtoes -9.89528
lfemur -2.29443 -2.59172 -17.3147
ltibia 37.9668
lfoot -12.5112 9.54433
ltoes -4.35208
